<?xml version="1.0" encoding="utf-8"?>
<!-- Generator: Adobe Illustrator 17.0.0, SVG Export Plug-In . SVG Version: 6.00 Build 0)  -->
<!DOCTYPE svg PUBLIC "-//W3C//DTD SVG 1.1//EN" "http://www.w3.org/Graphics/SVG/1.1/DTD/svg11.dtd">
<svg version="1.1" id="图层_1" xmlns="http://www.w3.org/2000/svg" xmlns:xlink="http://www.w3.org/1999/xlink" x="0px" y="0px"
	 width="278.03px" height="87.147px" viewBox="0 0 278.03 87.147" enable-background="new 0 0 278.03 87.147" xml:space="preserve">
<g opacity="0.9">
	<path opacity="0.9" fill="#FFFFFF" d="M47.531,36.882H0v-1.625h22.75v-8.125H3.656v-1.625H22.75v-5.484h2.234v5.484h20.109v1.625
		H24.984v8.125h22.547V36.882z M25.188,68.569h-2.234v-9.75H0.609v-1.625h22.344v-8.938H4.062v-1.422h41.031v1.422H25.188v8.938
		h22.953v1.625H25.188V68.569z M10.969,37.491h2.234c0.133,0.543,0.609,1.695,1.422,3.453c0.406,0.679,0.676,1.219,0.812,1.625
		c0.406,1.355,1.219,2.304,2.438,2.844c0.133,0.137,0.406,0.273,0.812,0.406c0.406,0.137,0.609,0.273,0.609,0.406
		c-0.137,0.137-0.746,0.137-1.828,0c-2.304-0.406-3.726-1.488-4.266-3.25c-0.273-0.54-0.543-1.219-0.812-2.031
		C11.711,39.592,11.238,38.44,10.969,37.491z M35.547,37.491h2.234c-0.949,2.71-1.762,4.539-2.438,5.484
		c-0.543,1.762-1.898,2.844-4.062,3.25c-1.085,0.137-1.695,0.137-1.828,0c0-0.133,0.203-0.27,0.609-0.406
		c0.406-0.133,0.676-0.27,0.812-0.406c0.946-0.54,1.758-1.488,2.438-2.844c0.54-0.946,1.149-2.234,1.828-3.859
		C35.274,38.17,35.41,37.764,35.547,37.491z"/>
	<path opacity="0.9" fill="#FFFFFF" d="M56.594,66.178h-1.375v-14c-0.168,0.334-0.459,0.75-0.875,1.25
		c-0.168,0.25-0.25,0.418-0.25,0.5l-0.125,0.125c-0.584,0.834-1.293,1.25-2.125,1.25c-0.668,0.25-1,0.293-1,0.125l0.125-0.125
		c0.332-0.25,0.666-0.5,1-0.75c1.082-1.166,2.957-4.166,5.625-9c0.5-1,0.666-1.707,0.5-2.125c0-0.332-0.625-0.5-1.875-0.5h-4.875
		v-0.875h5c1.832-0.082,2.832,0.334,3,1.25c0.166,0.668-0.084,1.584-0.75,2.75c-0.584,1.084-1.25,2.293-2,3.625V66.178z
		 M56.844,41.553h-1.375v-5.125h1.375V41.553z M57.094,50.803h1.375c0.25,0.668,0.457,1.209,0.625,1.625
		c0.666,1.334,1.25,2.168,1.75,2.5c0.166,0.168,0.457,0.334,0.875,0.5h0.125c0,0.084-0.375,0.125-1.125,0.125
		c-1.084-0.082-1.918-0.791-2.5-2.125C57.969,53.012,57.594,52.137,57.094,50.803z M80.344,38.803h-18.25v-1h18.25V38.803z
		 M63.469,65.553h-1.375v-14h1.375v1.5c0.416-1,1.125-1.5,2.125-1.5h11.125c2.332,0,3.457,1.084,3.375,3.25v7.625
		c0.082,2-1.043,3-3.375,3h-11c-1.334,0-2.084-0.709-2.25-2.125V65.553z M64.844,48.678h-1.375v-7.25h1.375v1.75
		c0.332-1.082,1.041-1.625,2.125-1.625h8.125c2.5-0.082,3.625,0.793,3.375,2.625v2c0.25,1.75-0.875,2.584-3.375,2.5h-8.125
		c-1.168,0-1.875-0.541-2.125-1.625V48.678z M65.469,52.428c-1.084,0-1.75,0.375-2,1.125v4.625h6.875v-5.75H65.469z M63.469,63.178
		v0.125c0.416,0.832,1.125,1.25,2.125,1.25h4.75v-5.375h-6.875V63.178z M66.844,42.428c-0.918,0-1.584,0.418-2,1.25v3
		c0.332,0.75,1,1.125,2,1.125h8.25c1.5,0.084,2.166-0.416,2-1.5v-2.375c0.082-1.082-0.584-1.582-2-1.5H66.844z M76.719,52.428h-5
		v5.75h7v-3.625C78.719,53.137,78.051,52.428,76.719,52.428z M76.719,64.553c1.332,0,2-0.625,2-1.875v-3.5h-7v5.375H76.719z"/>
	<path opacity="0.9" fill="#FFFFFF" d="M125.508,63.585h-0.453l0.227-0.453c10.27-4.832,15.633-11.781,16.086-20.844
		c-1.059-11.176-7.477-17.141-19.258-17.898c-0.758,0-1.512,0-2.266,0c2.719,1.965,3.773,4.078,3.172,6.344
		c-0.453,0.453-0.906,1.211-1.359,2.266c-0.305,0.605-0.531,1.059-0.68,1.359c-8.762,15.859-15.031,24.32-18.805,25.375
		c-3.93-1.359-6.422-5.738-7.477-13.141c2.566-14.195,11.781-22.277,27.641-24.242c14.348,1.059,21.898,7.855,22.656,20.391
		C144.84,53.616,138.344,60.565,125.508,63.585z M120.07,27.108l-1.133-2.719c-13.141,4.684-20.617,12.086-22.43,22.203
		c1.508,5.891,3.547,9.062,6.117,9.516C112.141,46.444,117.953,36.776,120.07,27.108z"/>
	<path opacity="0.9" fill="#FFFFFF" d="M163.453,70.116h-2.922V41.428c-2.125,3.544-4.429,5.312-6.906,5.312
		c-1.594,0.179-2.482,0.179-2.656,0c0-0.174,0.439-0.44,1.328-0.797c0.531-0.353,0.971-0.618,1.328-0.797
		c1.062-0.531,2.83-2.565,5.312-6.109c1.236-1.946,3.893-6.375,7.969-13.281h3.188c-2.835,4.781-5.047,8.5-6.641,11.156V70.116z
		 M166.641,6.897h3.188c-3.897,6.554-6.375,10.716-7.438,12.484c-2.656,4.429-5.312,6.819-7.969,7.172
		c-1.594,0-2.482-0.087-2.656-0.266c0.174-0.353,1.062-0.884,2.656-1.594c1.768-1.062,3.54-3.188,5.312-6.375
		C160.971,16.373,163.274,12.567,166.641,6.897z M179.125,38.241h3.453c4.781,5.491,9.031,10.451,12.75,14.875
		c5.844-6.018,9.828-10.625,11.953-13.812c1.236-2.478,0.439-3.806-2.391-3.984h-28.688v12.484c0,5.844-0.266,9.919-0.797,12.219
		c-0.71,2.482-1.507,4.424-2.391,5.844c-1.062,1.946-2.482,3.188-4.25,3.719c-1.772,0.706-3.014,0.884-3.719,0.531l0.531-0.531
		c0.884-0.531,1.681-1.154,2.391-1.859c1.946-1.772,3.453-4.429,4.516-7.969c0.531-3.188,0.797-6.993,0.797-11.422V14.866h2.922
		v18.328h16.203V16.991h-10.359c-2.304,0-4.163,1.328-5.578,3.984l-0.266,0.266c0.353-4.071,2.299-6.109,5.844-6.109h10.359V6.897
		h2.922v8.234h10.359c4.781,0,7.08,2.304,6.906,6.906v2.656c0,2.835-1.062,4.781-3.188,5.844c-0.179,0-0.357,0-0.531,0
		c-1.241,0.357-1.859,0.444-1.859,0.266l0.266-0.266c1.594-1.415,2.391-3.274,2.391-5.578v-3.453
		c0.174-3.009-1.154-4.516-3.984-4.516h-10.359v16.203h10.625c3.361,0.179,5.221,1.328,5.578,3.453
		c0.174,1.772-0.357,3.366-1.594,4.781c-0.357,0.531-1.062,1.328-2.125,2.391c-4.076,4.607-7.616,8.413-10.625,11.422
		c2.478,2.835,5.134,5.578,7.969,8.234c2.83,2.831,5.221,4.603,7.172,5.313c0.174,0,0.531,0.087,1.062,0.266
		c1.062,0.174,1.502,0.44,1.328,0.797c0,0.174-0.797,0.266-2.391,0.266c-2.835,0.174-5.578-0.888-8.234-3.188
		c-2.656-2.656-5.578-5.844-8.766-9.563c-3.188,3.013-6.467,5.752-9.828,8.234c-3.188,2.656-5.757,4.159-7.703,4.516
		c-2.835,0.353-4.607,0.353-5.312,0c0-0.179,0.439-0.444,1.328-0.797c3.361-1.241,6.462-3.013,9.297-5.312
		c3.009-2.125,6.462-5.134,10.359-9.031C189.219,50.02,184.438,44.442,179.125,38.241z"/>
	<path opacity="0.9" fill="#FFFFFF" d="M222.469,39.803h1.875v3.188c0.873-2.124,2.373-3.188,4.5-3.188h33.75v1.312h-33.562
		c-2.001,0-3.562,0.814-4.688,2.438v14.625c0,4.749-0.938,7.623-2.812,8.625c-1.377,0.624-2.438,0.938-3.188,0.938l0.375-0.375
		c0.624-0.501,1.125-1.063,1.5-1.688c1.5-1.752,2.25-4.313,2.25-7.688V39.803z M242.531,23.491v10.125h10.125
		c3.249,0,4.937-1.248,5.062-3.75v-4.125h2.062v4.125c0.123,3.627-2.188,5.376-6.938,5.25h-22.312c-2.877,0-4.564-0.812-5.062-2.438
		v2.438h-2.062v-9.375h2.062v6.188c0.375,1.125,1.998,1.688,4.875,1.688h10.125V23.491H242.531z M245.344,68.116h-2.062v-12h-17.062
		v-1.312h17.062v-6.938h-14.438v-1.5h31.312v1.5h-14.812v6.938h17.438v1.312h-17.438V68.116z"/>
</g>
<g opacity="0.9">
	<path fill="#F9F5F4" d="M115.651,80.45v6.636h-0.54V80.45h-2.118v-0.48h4.787v0.48H115.651z"/>
	<path fill="#F9F5F4" d="M123.43,87.087v-3.348h-3.708v3.348h-0.539V79.97h0.539v3.288h3.708V79.97h0.54v7.116H123.43z"/>
	<path fill="#F9F5F4" d="M126.173,87.087V79.97h4.317v0.48h-3.778v2.808h3.219v0.48h-3.219v2.869h3.778v0.479H126.173z"/>
	<path fill="#F9F5F4" d="M138.64,86.417c-0.47,0.47-1.109,0.729-1.778,0.729c-0.67,0-1.31-0.26-1.779-0.729
		c-0.649-0.65-0.66-1.279-0.66-2.889c0-1.609,0.011-2.239,0.66-2.888c0.47-0.47,1.109-0.73,1.779-0.73
		c0.669,0,1.309,0.26,1.778,0.73c0.65,0.649,0.66,1.279,0.66,2.888C139.3,85.138,139.29,85.767,138.64,86.417z M138.21,80.94
		c-0.359-0.36-0.839-0.55-1.349-0.55s-0.99,0.19-1.35,0.55c-0.51,0.51-0.55,1.059-0.55,2.588s0.04,2.079,0.55,2.589
		c0.359,0.359,0.84,0.549,1.35,0.549s0.989-0.19,1.349-0.549c0.51-0.51,0.55-1.06,0.55-2.589S138.72,81.45,138.21,80.94z"/>
	<path fill="#F9F5F4" d="M142.881,80.45v6.636h-0.54V80.45h-2.118v-0.48h4.787v0.48H142.881z"/>
	<path fill="#F9F5F4" d="M150.66,87.087v-3.348h-3.708v3.348h-0.54V79.97h0.54v3.288h3.708V79.97h0.539v7.116H150.66z"/>
	<path fill="#F9F5F4" d="M153.402,87.087V79.97h4.317v0.48h-3.778v2.808h3.219v0.48h-3.219v2.869h3.778v0.479H153.402z"/>
	<path fill="#F9F5F4" d="M163.579,87.087l-1.698-3.278h-1.959v3.278h-0.54V79.97h2.709c1.159,0,2.038,0.67,2.038,1.909
		c0,1.059-0.64,1.749-1.639,1.919l1.719,3.288H163.579z M162.021,80.45h-2.099v2.878h2.099c0.909,0,1.569-0.46,1.569-1.439
		S162.93,80.45,162.021,80.45z"/>
	<path fill="#F9F5F4" d="M170.28,87.147c-1.06,0-1.719-0.29-2.368-0.939l0.38-0.38c0.64,0.64,1.159,0.839,2.019,0.839
		c1.119,0,1.829-0.54,1.829-1.469c0-0.419-0.13-0.77-0.39-0.999c-0.26-0.22-0.45-0.29-1.029-0.38l-0.83-0.13
		c-0.54-0.08-0.97-0.26-1.27-0.52c-0.38-0.32-0.56-0.759-0.56-1.309c0-1.189,0.85-1.949,2.209-1.949c0.88,0,1.439,0.24,2.049,0.77
		l-0.35,0.35c-0.439-0.39-0.88-0.66-1.729-0.66c-1.029,0-1.648,0.57-1.648,1.469c0,0.41,0.119,0.72,0.369,0.93
		c0.25,0.209,0.66,0.379,1.06,0.439l0.77,0.12c0.67,0.1,0.97,0.22,1.27,0.47c0.39,0.32,0.62,0.81,0.62,1.379
		C172.68,86.377,171.76,87.147,170.28,87.147z"/>
	<path fill="#F9F5F4" d="M174.372,87.087V79.97h0.539v7.116H174.372z"/>
	<path fill="#F9F5F4" d="M181.279,86.437c-0.42,0.419-1.04,0.649-1.779,0.649h-2.389V79.97h2.389c0.739,0,1.359,0.23,1.779,0.65
		c0.72,0.719,0.689,1.849,0.689,2.808S181.999,85.718,181.279,86.437z M180.899,81c-0.41-0.42-0.96-0.55-1.529-0.55h-1.719v6.157
		h1.719c0.569,0,1.119-0.13,1.529-0.55c0.569-0.58,0.529-1.839,0.529-2.629S181.469,81.58,180.899,81z"/>
	<path fill="#F9F5F4" d="M183.892,87.087V79.97h4.317v0.48h-3.778v2.808h3.219v0.48h-3.219v2.869h3.778v0.479H183.892z"/>
	<path fill="#F9F5F4" d="M196.359,86.417c-0.47,0.47-1.109,0.729-1.779,0.729s-1.31-0.26-1.779-0.729
		c-0.649-0.65-0.659-1.279-0.659-2.889c0-1.609,0.01-2.239,0.659-2.888c0.47-0.47,1.109-0.73,1.779-0.73s1.31,0.26,1.779,0.73
		c0.649,0.649,0.659,1.279,0.659,2.888C197.019,85.138,197.009,85.767,196.359,86.417z M195.93,80.94
		c-0.36-0.36-0.84-0.55-1.35-0.55s-0.989,0.19-1.349,0.55c-0.51,0.51-0.55,1.059-0.55,2.588s0.04,2.079,0.55,2.589
		c0.359,0.359,0.839,0.549,1.349,0.549s0.989-0.19,1.35-0.549c0.51-0.51,0.55-1.06,0.55-2.589S196.439,81.45,195.93,80.94z"/>
	<path fill="#F9F5F4" d="M199.48,80.45v2.928h3.219v0.48h-3.219v3.228h-0.539V79.97h4.317v0.48H199.48z"/>
	<path fill="#F9F5F4" d="M211.498,87.087v-3.348h-3.708v3.348h-0.539V79.97h0.539v3.288h3.708V79.97h0.54v7.116H211.498z"/>
	<path fill="#F9F5F4" d="M218.429,87.087l-0.62-1.729h-3.317l-0.62,1.729h-0.579l2.618-7.116h0.479l2.619,7.116H218.429z
		 M216.15,80.69l-1.489,4.188h2.978L216.15,80.69z"/>
	<path fill="#F9F5F4" d="M222.869,84.068H220.8v3.019h-0.539V79.97h2.608c1.229,0,2.148,0.75,2.148,2.049
		S224.099,84.068,222.869,84.068z M222.81,80.45h-2.01v3.138h2.01c0.979,0,1.669-0.5,1.669-1.569S223.789,80.45,222.81,80.45z"/>
	<path fill="#F9F5F4" d="M229.18,84.068h-2.069v3.019h-0.539V79.97h2.608c1.229,0,2.148,0.75,2.148,2.049
		S230.409,84.068,229.18,84.068z M229.12,80.45h-2.01v3.138h2.01c0.979,0,1.669-0.5,1.669-1.569S230.1,80.45,229.12,80.45z"/>
	<path fill="#F9F5F4" d="M232.881,87.087V79.97h0.539v7.116H232.881z"/>
	<path fill="#F9F5F4" d="M240.269,87.087L236.16,80.9v6.187h-0.539V79.97h0.539l4.108,6.167V79.97h0.539v7.116H240.269z"/>
	<path fill="#F9F5F4" d="M243.011,87.087V79.97h4.317v0.48h-3.778v2.808h3.219v0.48h-3.219v2.869h3.778v0.479H243.011z"/>
	<path fill="#F9F5F4" d="M250.771,87.147c-1.06,0-1.72-0.29-2.369-0.939l0.38-0.38c0.64,0.64,1.159,0.839,2.019,0.839
		c1.119,0,1.829-0.54,1.829-1.469c0-0.419-0.13-0.77-0.39-0.999c-0.26-0.22-0.45-0.29-1.029-0.38l-0.83-0.13
		c-0.539-0.08-0.969-0.26-1.269-0.52c-0.38-0.32-0.561-0.759-0.561-1.309c0-1.189,0.85-1.949,2.209-1.949
		c0.88,0,1.439,0.24,2.049,0.77l-0.35,0.35c-0.439-0.39-0.88-0.66-1.729-0.66c-1.03,0-1.649,0.57-1.649,1.469
		c0,0.41,0.12,0.72,0.37,0.93c0.249,0.209,0.659,0.379,1.059,0.439l0.77,0.12c0.67,0.1,0.97,0.22,1.27,0.47
		c0.39,0.32,0.62,0.81,0.62,1.379C253.169,86.377,252.249,87.147,250.771,87.147z"/>
	<path fill="#F9F5F4" d="M256.44,87.147c-1.06,0-1.72-0.29-2.369-0.939l0.38-0.38c0.64,0.64,1.159,0.839,2.019,0.839
		c1.119,0,1.829-0.54,1.829-1.469c0-0.419-0.13-0.77-0.39-0.999c-0.26-0.22-0.45-0.29-1.029-0.38l-0.83-0.13
		c-0.539-0.08-0.969-0.26-1.269-0.52c-0.38-0.32-0.561-0.759-0.561-1.309c0-1.189,0.85-1.949,2.209-1.949
		c0.88,0,1.439,0.24,2.049,0.77l-0.35,0.35c-0.439-0.39-0.88-0.66-1.729-0.66c-1.03,0-1.649,0.57-1.649,1.469
		c0,0.41,0.12,0.72,0.37,0.93c0.249,0.209,0.659,0.379,1.059,0.439l0.77,0.12c0.67,0.1,0.97,0.22,1.27,0.47
		c0.39,0.32,0.62,0.81,0.62,1.379C258.839,86.377,257.919,87.147,256.44,87.147z"/>
</g>
<g id="xin" opacity="0.9">
	<path fill="#FFFFFF" d="M46.514,15.953c-0.325-3.075,0.064-4.2,1.571-6.307c1.798-2.514,6.238-3.543,9.309-1.499
		c3.365,2.24,4.275,5.105,4.275,5.105c2.39-0.472,2.516,0.076,3.914,0.346c0.955-2.513-0.048-4.914-3.201-6.604
		c0,0-2.129-1.335-6.447-0.076c0,0-0.169-4.311-3.393-6.154c-3.223-1.843-6.39-0.03-7.501,2.047
		c-1.012,1.892-0.837,3.767-0.253,6.739c0.584,2.972,2.609,11.048,2.609,11.048l0.076-0.252
		C47.182,19.084,46.6,16.763,46.514,15.953z"/>
	<path fill="#FFFFFF" d="M62.556,28.468L51.681,30.26c0,0-2.025-8.076-2.609-11.048c-0.584-2.972-0.76-4.848,0.253-6.739
		c1.111-2.077,4.278-3.89,7.501-2.047c3.223,1.843,3.393,6.154,3.393,6.154c4.318-1.258,6.447,0.076,6.447,0.076
		c2.766,1.468,4.077,4.893,2.611,7.511C67.044,28.156,62.556,28.468,62.556,28.468z"/>
</g>
<g id="BETA">
	<polygon fill="#FFFFFF" points="258.986,23.451 261.439,20.553 259.177,20.553 	"/>
	<path fill="#FFFFFF" d="M261.836,16.341c0-0.47-0.335-0.727-0.827-0.727h-1.141v1.454h1.141
		C261.501,17.068,261.836,16.811,261.836,16.341z"/>
	<path fill="#FFFFFF" d="M261.914,18.529c0-0.449-0.299-0.77-0.834-0.77h-1.212v1.547h1.212
		C261.615,19.306,261.914,18.978,261.914,18.529z"/>
	<polygon fill="#FFFFFF" points="272.484,18.322 274.044,18.322 273.275,16.07 	"/>
	<path fill="#FFFFFF" d="M274.975,13.83h-16.829c-1.687,0-3.055,1.644-3.055,3.672c0,2.028,1.368,3.672,3.055,3.672h2.51h0.954
		h13.365c1.687,0,3.055-1.644,3.055-3.672C278.03,15.474,276.662,13.83,274.975,13.83z M259.099,19.997v-5.075h1.974
		c0.941,0,1.532,0.534,1.532,1.39c0,0.549-0.342,0.941-0.684,1.076c0.391,0.157,0.763,0.535,0.763,1.176
		c0,0.934-0.634,1.433-1.533,1.433H259.099z M267.069,15.614h-2.473v1.482h2.109v0.684h-2.109v1.525h2.473v0.691h-3.242v-5.075
		h3.242V15.614z M269.844,19.997h-0.77v-4.383h-1.397v-0.692h3.563v0.692h-1.397V19.997z M274.608,19.997l-0.35-1.019h-2.003
		l-0.349,1.019h-0.82l1.86-5.075h0.62l1.861,5.075H274.608z"/>
</g>
</svg>
